<?xml version="1.0" encoding="utf-8"?>
<!-- Generator: Adobe Illustrator 25.0.1, SVG Export Plug-In . SVG Version: 6.00 Build 0)  -->
<svg version="1.1" id="圖層_1" xmlns="http://www.w3.org/2000/svg" xmlns:xlink="http://www.w3.org/1999/xlink" x="0px" y="0px"
	 viewBox="0 0 370 150" style="enable-background:new 0 0 370 150;" xml:space="preserve">
<style type="text/css">
	.st0{fill:#9C8A72;}
	.st1{fill:#040000;}
	.st2{fill:none;}
</style>
<g>
	<g>
		<g>
			<path class="st0" d="M184,60.1c2.5,0,4.7,0.3,6.6,0.8c1.8,0.6,3.3,1.3,4.5,2.2c1.2,0.9,2.1,2,2.6,3.2c0.6,1.2,0.8,2.5,0.8,3.9
				c0,1.1-0.2,2.1-0.5,3.2c-0.4,1.1-0.9,2-1.7,3c-0.8,0.9-1.7,1.7-3,2.4c-1.2,0.7-2.7,1.2-4.4,1.6L199.5,94h-8.8l-10.3-13.1h-11.8
				c-0.8,0-1.1,0.3-1.1,0.9V94h-7.9V80.6c0-1.9,0.6-3.3,1.7-4.1c1.1-0.8,2.9-1.3,5.4-1.3h17.6c1.1,0,2.1-0.1,2.9-0.4
				c0.8-0.3,1.5-0.6,1.9-1.1c0.5-0.4,0.9-0.9,1.1-1.5c0.2-0.6,0.4-1.2,0.4-1.8c0-1.2-0.5-2.3-1.5-3.1c-1-0.9-2.6-1.3-4.8-1.3h-24.8
				v-5.9H184z"/>
			<path class="st0" d="M245.3,60.1V66h-22.7c-2.4,0-4.2,0.4-5.2,1.2c-1.1,0.8-1.6,1.8-1.6,3.1c0,2.7,2.3,4,6.9,4H245v5.4h-22.5
				c-4.6,0-6.9,1.4-6.9,4.1c0,1.3,0.6,2.4,1.7,3.1c1.1,0.8,2.8,1.1,5.2,1.1h22.9V94h-22.9c-2.7,0-5-0.2-6.9-0.7
				c-1.9-0.5-3.5-1.1-4.7-1.9c-1.2-0.8-2.1-1.8-2.7-2.9c-0.6-1.1-0.8-2.4-0.8-3.7c0-1.9,0.6-3.6,1.7-4.9c1.1-1.3,2.7-2.3,4.8-2.9
				c-4.3-1.3-6.4-3.9-6.4-7.6c0-1.3,0.3-2.6,0.9-3.7c0.6-1.1,1.5-2.1,2.7-2.9c1.2-0.8,2.8-1.5,4.7-1.9c1.9-0.5,4.2-0.7,6.9-0.7
				H245.3z"/>
			<path class="st0" d="M261.8,94h-8.7L269,63.9c0.8-1.6,2-2.7,3.6-3.4c1.5-0.7,3.5-1,5.9-1c2.4,0,4.3,0.3,5.9,1
				c1.5,0.7,2.7,1.8,3.5,3.4L303.2,94h-8.8l-13.8-27.3c-0.4-0.8-1.1-1.2-2.2-1.2c-1.1,0-1.8,0.4-2.3,1.2L261.8,94z"/>
			<path class="st0" d="M331.3,60.1c6.7,0,11.7,1.4,15.2,4.2c3.5,2.8,5.2,7.1,5.2,12.8c0,5.7-1.7,10-5.2,12.8
				C343,92.7,338,94,331.3,94h-16c-2.5,0-3.8-0.9-3.8-2.8V62.9c0-1.8,1.3-2.8,3.8-2.8H331.3z M319.5,87.5c0,0.4,0.3,0.6,0.9,0.6
				h10.9c4.4,0,7.6-0.9,9.5-2.6c2-1.7,3-4.6,3-8.5c0-3.9-1-6.7-2.9-8.4c-1.9-1.7-5.1-2.6-9.6-2.6h-10.9c-0.6,0-0.9,0.2-0.9,0.6V87.5
				z"/>
			<g>
				<rect x="139" y="60.1" class="st0" width="7.9" height="6.9"/>
				<rect x="139" y="75.3" class="st0" width="7.9" height="18.7"/>
			</g>
		</g>
	</g>
	<g>
		<path class="st1" d="M34.4,64c-1.8,12.2-5.1,21.7-12.1,28.3c-0.7-0.9-2.6-2.7-3.7-3.4c6.4-5.5,9.5-14.1,11-24.9H20v-4.1h10.2
			c0.2-1.7,0.3-3.5,0.5-5.4l4.8,0.3c-0.1,1.7-0.3,3.4-0.5,5.1h26.1V64H34.4z M49,66.1c-0.1,4.2-0.4,8-1,11.7
			c2.7,6.7,7.8,12.4,14.2,15.3c-0.9,0.8-2.3,2.2-2.9,3.4c-5.4-2.7-9.7-7.2-12.8-12.8c-2.1,5.7-6.2,10.2-14.1,13.1
			c-0.5-1.1-1.7-2.6-2.7-3.4C43.4,88.5,44,78.7,44.4,66.1H49z M33.7,80.5c1.4-2.5,2.6-6.4,3.2-9.4l3.7,1.2c-0.7,3.1-1.7,7.1-3.1,9.6
			L33.7,80.5z M51,79.2c1.5-2.2,3.5-5.9,4.5-8.5l3.8,1.7c-1.5,3-3.4,6.3-4.9,8.5L51,79.2z"/>
		<path class="st1" d="M76.2,96.1L72,94.6c0.7-0.6,1.7-1.6,2.8-3.1c1-1.4,1.8-2.5,2.3-3.5l4.3,0.8c-0.4,0.9-1.2,2.2-2.5,4
			C77.6,94.6,76.7,95.7,76.2,96.1z M72.9,65.5l-0.2-3.3c0.7,0,1.5,0,2.4,0c1.9-2.6,3.3-4.8,4.1-6.6l4.1,0.7
			c-0.6,1.4-1.9,3.3-3.9,5.8c2.3-0.1,5.1-0.3,8.4-0.5c-0.7-1-1.3-1.8-1.9-2.5l3.5-1.6c0.8,0.8,1.6,2,2.6,3.5c1.3,2,2.1,3.2,2.4,3.6
			l-3.7,1.4c-0.4-0.5-0.7-1.1-1-1.6C85,64.7,79.4,65.1,72.9,65.5z M87.7,79.6h-9.2V86h-4.2V67.3h17.5V83c0,0.8-0.3,1.4-1,2
			c-0.8,0.6-1.7,1-2.9,1h-3.5l-0.3-3.4h2.4c0.8,0,1.2-0.3,1.2-0.8V79.6z M87.7,72.3V70h-9.2v2.3H87.7z M78.5,77.1h9.2v-2.3h-9.2
			V77.1z M87,95.8c-0.8-2.2-1.6-4.5-2.6-7l4.1-0.7c0.2,0.2,0.7,1.4,1.6,3.5c0.9,2.1,1.3,3.3,1.3,3.5L87,95.8z M98.2,95.5
			c-1-2.2-2.1-4.5-3.3-7l4.1-0.8c0.2,0.3,0.8,1.4,1.9,3.5c1.1,2,1.7,3.2,1.8,3.5L98.2,95.5z M110,85.3c-4.7,0.2-8.3,0.2-10.8,0
			C98,85.1,97,84.7,96.3,84c-0.7-0.7-1.1-1.5-1.1-2.5v-9.4h4.4v2.3c5.6-1,9.7-2,12.3-3.1l1.7,3.4c-2.5,0.9-7.2,1.9-14,2.9v2.7
			c0,0.7,0.5,1.1,1.5,1.3c3.8,0.4,6.6,0.4,8.4,0c0.8-0.2,1.2-0.5,1.4-1.1c0.1-0.3,0.2-0.3,0.3-2.4l3.6,0.4v3.2
			c0,0.9-0.4,1.7-1.3,2.4C112.7,84.8,111.5,85.2,110,85.3z M109.5,69.6c-4.1,0.2-7.6,0.1-10.3-0.1c-2.5-0.2-3.7-1.4-3.7-3.4V56h4.3
			v3.6c5.2-0.9,9.1-1.9,11.7-3l1.8,3c-3,1-7.4,2-13.5,3.1V65c0,0.7,0.5,1.1,1.4,1.2c2.5,0.3,5,0.3,7.6,0c1-0.1,1.6-0.5,1.7-1.2
			c0.2-0.7,0.2-0.5,0.2-1.9l3.6,0.4v2.6c0,0.9-0.4,1.7-1.3,2.4C112.2,69.2,111,69.6,109.5,69.6z M106.7,88.9l4.1-1
			c0,0,0.7,0.9,2.1,2.9c1,1.4,2.4,3.6,2.7,4.1l-4.9,0.8c0,0-0.8-1.5-1.9-3.5C107.9,90.6,106.7,88.9,106.7,88.9z"/>
	</g>
</g>
<rect x="0" y="0.6" class="st2" width="370" height="150"/>
</svg>
