<?xml version="1.0" encoding="utf-8"?>
<!-- Generator: Adobe Illustrator 25.0.1, SVG Export Plug-In . SVG Version: 6.00 Build 0)  -->
<svg version="1.1" id="圖層_1" xmlns="http://www.w3.org/2000/svg" xmlns:xlink="http://www.w3.org/1999/xlink" x="0px" y="0px"
	 viewBox="0 0 220 90" style="enable-background:new 0 0 220 90;" xml:space="preserve">
<style type="text/css">
	.st0{fill:#9C8A72;}
	.st1{fill:#040000;}
</style>
<g>
	<g>
		<g>
			<path class="st0" d="M110.3,35.7c1.5,0,2.8,0.2,3.9,0.5c1.1,0.3,2,0.8,2.7,1.3c0.7,0.6,1.2,1.2,1.6,1.9c0.3,0.7,0.5,1.5,0.5,2.3
				c0,0.6-0.1,1.3-0.3,1.9c-0.2,0.6-0.5,1.2-1,1.8c-0.5,0.6-1,1-1.8,1.5c-0.7,0.4-1.6,0.7-2.6,1l6.3,8.1h-5.3l-6.2-7.9h-7.1
				c-0.5,0-0.7,0.2-0.7,0.5V56h-4.7v-8c0-1.1,0.3-2,1-2.5c0.7-0.5,1.8-0.8,3.3-0.8h10.6c0.7,0,1.2-0.1,1.7-0.2
				c0.5-0.2,0.9-0.4,1.2-0.6c0.3-0.3,0.5-0.6,0.7-0.9c0.1-0.3,0.2-0.7,0.2-1.1c0-0.7-0.3-1.3-0.9-1.9c-0.6-0.5-1.6-0.8-2.9-0.8H95.6
				v-3.6H110.3z"/>
			<path class="st0" d="M147,35.7v3.6h-13.6c-1.4,0-2.5,0.2-3.1,0.7c-0.6,0.5-1,1.1-1,1.9c0,1.6,1.4,2.4,4.1,2.4h13.3v3.2h-13.4
				c-2.8,0-4.1,0.8-4.1,2.5c0,0.8,0.3,1.4,1,1.9c0.7,0.5,1.7,0.7,3.1,0.7H147V56h-13.7c-1.6,0-3-0.1-4.1-0.4
				c-1.1-0.3-2.1-0.7-2.8-1.2c-0.7-0.5-1.3-1.1-1.6-1.8c-0.3-0.7-0.5-1.4-0.5-2.2c0-1.2,0.3-2.1,1-2.9c0.7-0.8,1.6-1.4,2.9-1.8
				c-2.5-0.8-3.8-2.3-3.8-4.6c0-0.8,0.2-1.5,0.5-2.2c0.3-0.7,0.9-1.3,1.6-1.8c0.7-0.5,1.7-0.9,2.8-1.1c1.1-0.3,2.5-0.4,4.1-0.4H147z
				"/>
			<path class="st0" d="M156.9,56h-5.2l9.5-18.1c0.5-1,1.2-1.6,2.1-2c0.9-0.4,2.1-0.6,3.6-0.6c1.4,0,2.6,0.2,3.5,0.6
				c0.9,0.4,1.6,1.1,2.1,2l9.2,18.1h-5.3l-8.2-16.3c-0.2-0.5-0.7-0.7-1.3-0.7c-0.6,0-1.1,0.2-1.4,0.7L156.9,56z"/>
			<path class="st0" d="M198.4,35.7c4,0,7,0.8,9.1,2.5c2.1,1.7,3.1,4.2,3.1,7.7c0,3.4-1,6-3.1,7.6c-2.1,1.7-5.1,2.5-9.1,2.5h-9.6
				c-1.5,0-2.2-0.6-2.2-1.7v-17c0-1.1,0.7-1.7,2.2-1.7H198.4z M191.4,52.1c0,0.2,0.2,0.4,0.5,0.4h6.5c2.6,0,4.5-0.5,5.7-1.6
				c1.2-1,1.8-2.7,1.8-5.1c0-2.3-0.6-4-1.7-5c-1.2-1-3.1-1.6-5.7-1.6h-6.5c-0.3,0-0.5,0.1-0.5,0.4V52.1z"/>
			<g>
				<rect x="83.4" y="35.7" class="st0" width="4.7" height="4.1"/>
				<rect x="83.4" y="44.8" class="st0" width="4.7" height="11.2"/>
			</g>
		</g>
	</g>
	<g>
		<path class="st1" d="M20.8,38.1c-1.1,7.3-3.1,13-7.2,16.9c-0.4-0.5-1.6-1.6-2.2-2.1c3.9-3.3,5.7-8.5,6.6-14.9h-5.8v-2.5h6.1
			c0.1-1,0.2-2.1,0.3-3.2l2.8,0.2c-0.1,1-0.2,2.1-0.3,3h15.6v2.5H20.8z M29.5,39.3c-0.1,2.5-0.2,4.8-0.6,7c1.6,4,4.7,7.4,8.5,9.1
			c-0.5,0.5-1.4,1.3-1.7,2c-3.2-1.6-5.8-4.3-7.7-7.7c-1.3,3.4-3.7,6.1-8.4,7.9c-0.3-0.6-1-1.6-1.6-2.1c8.2-2.8,8.5-8.7,8.8-16.2
			H29.5z M20.4,48c0.8-1.5,1.6-3.8,1.9-5.6l2.2,0.7c-0.4,1.8-1,4.2-1.8,5.7L20.4,48z M30.7,47.2c0.9-1.3,2.1-3.5,2.7-5.1l2.3,1
			c-0.9,1.8-2,3.7-2.9,5.1L30.7,47.2z"/>
		<path class="st1" d="M45.8,57.3l-2.5-0.9c0.4-0.3,1-0.9,1.7-1.8c0.6-0.8,1.1-1.5,1.4-2.1l2.6,0.5c-0.2,0.5-0.7,1.3-1.5,2.4
			C46.7,56.4,46.1,57,45.8,57.3z M43.8,39l-0.1-2c0.4,0,0.9,0,1.4,0c1.2-1.5,2-2.9,2.4-3.9l2.5,0.4c-0.4,0.8-1.1,2-2.3,3.4
			c1.4-0.1,3-0.2,5-0.3c-0.4-0.6-0.8-1.1-1.2-1.5l2.1-1c0.5,0.5,1,1.2,1.6,2.1c0.8,1.2,1.3,1.9,1.4,2.2l-2.2,0.8
			c-0.2-0.3-0.4-0.6-0.6-0.9C51.1,38.5,47.8,38.8,43.8,39z M52.7,47.4h-5.5v3.8h-2.5V40h10.5v9.4c0,0.5-0.2,0.9-0.6,1.2
			c-0.5,0.4-1,0.6-1.7,0.6h-2.1l-0.2-2.1H52c0.5,0,0.7-0.2,0.7-0.5V47.4z M52.7,43.1v-1.4h-5.5v1.4H52.7z M47.2,45.9h5.5v-1.4h-5.5
			V45.9z M52.3,57.1c-0.5-1.3-1-2.7-1.5-4.2l2.5-0.4c0.1,0.1,0.4,0.8,1,2.1c0.5,1.3,0.8,2,0.8,2.1L52.3,57.1z M59,56.9
			c-0.6-1.3-1.2-2.7-2-4.2l2.4-0.5c0.1,0.2,0.5,0.9,1.1,2.1s1,1.9,1.1,2.1L59,56.9z M66,50.8c-2.8,0.1-5,0.1-6.5,0
			c-0.7-0.1-1.3-0.3-1.7-0.8c-0.4-0.4-0.6-0.9-0.6-1.5v-5.6h2.6v1.4c3.4-0.6,5.8-1.2,7.3-1.8l1,2c-1.5,0.5-4.3,1.1-8.4,1.8v1.6
			c0,0.4,0.3,0.7,0.9,0.8c2.3,0.2,4,0.2,5,0c0.5-0.1,0.7-0.3,0.8-0.7c0.1-0.2,0.1-0.2,0.2-1.4l2.2,0.2v1.9c0,0.6-0.3,1-0.8,1.4
			C67.7,50.5,66.9,50.8,66,50.8z M65.7,41.4c-2.5,0.1-4.5,0.1-6.2-0.1c-1.5-0.1-2.2-0.8-2.2-2.1v-6h2.6v2.2c3.1-0.6,5.4-1.2,7-1.8
			l1.1,1.8c-1.8,0.6-4.5,1.2-8.1,1.9v1.3c0,0.4,0.3,0.7,0.9,0.7c1.5,0.2,3,0.2,4.5,0c0.6-0.1,0.9-0.3,1-0.7s0.1-0.3,0.1-1.1l2.1,0.2
			v1.6c0,0.5-0.2,1-0.7,1.4C67.3,41.2,66.6,41.4,65.7,41.4z M64.1,52.9l2.5-0.6c0,0,0.4,0.5,1.2,1.7c0.6,0.8,1.5,2.1,1.6,2.5
			L66.4,57c0,0-0.5-0.9-1.1-2.1C64.8,54,64.1,52.9,64.1,52.9z"/>
	</g>
</g>
</svg>
